<svg width="334" height="314" viewBox="0 0 334 314" fill="none" xmlns="http://www.w3.org/2000/svg">
<style>
  @keyframes twinkle1 { 0%, 100% { opacity: 1; } 50% { opacity: 0.3; } }
  @keyframes twinkle2 { 0%, 100% { opacity: 0.9; } 40% { opacity: 0.2; } }
  @keyframes twinkle3 { 0%, 100% { opacity: 1; } 60% { opacity: 0.4; } }
  @keyframes twinkle4 { 0%, 100% { opacity: 0.85; } 35% { opacity: 0.15; } }
  @keyframes twinkle5 { 0%, 100% { opacity: 1; } 70% { opacity: 0.25; } }
  .bulb1 { animation: twinkle3 2.1s ease-in-out infinite 0.6s; }
  .bulb2 { animation: twinkle1 1.8s ease-in-out infinite 0.1s; }
  .bulb3 { animation: twinkle4 2.4s ease-in-out infinite 0.8s; }
  .bulb4 { animation: twinkle2 1.6s ease-in-out infinite 0.4s; }
  .bulb5 { animation: twinkle5 2.6s ease-in-out infinite 1.2s; }
  .bulb6 { animation: twinkle1 2.2s ease-in-out infinite 0.3s; }
</style>
<path d="M494.724 312.599C422.893 215.351 230.947 22.7758 37.8076 30.4676" stroke="#6C6C6C" stroke-width="4"/>
<g filter="url(#filter0_f_260_657)" class="bulb1">
<circle cx="8.01054" cy="8.01054" r="8.01054" transform="matrix(0.942373 0.334564 0.334564 -0.942373 95 39.5374)" fill="#D4C71D"/>
<circle cx="8.01054" cy="8.01054" r="7.72445" transform="matrix(0.942373 0.334564 0.334564 -0.942373 95 39.5374)" stroke="#AAAAAA" stroke-width="0.572181"/>
</g>
<g filter="url(#filter1_f_260_657)" class="bulb2">
<circle cx="8.01054" cy="8.01054" r="8.01054" transform="matrix(0.942373 0.334564 0.334564 -0.942373 139.512 49.2679)" fill="#CB000B"/>
<circle cx="8.01054" cy="8.01054" r="7.72445" transform="matrix(0.942373 0.334564 0.334564 -0.942373 139.512 49.2679)" stroke="#AAAAAA" stroke-width="0.572181"/>
</g>
<g filter="url(#filter2_f_260_657)" class="bulb3">
<circle cx="8.01054" cy="8.01054" r="8.01054" transform="matrix(0.942373 0.334564 0.334564 -0.942373 172.404 60.9457)" fill="#055A44"/>
<circle cx="8.01054" cy="8.01054" r="7.72445" transform="matrix(0.942373 0.334564 0.334564 -0.942373 172.404 60.9457)" stroke="#AAAAAA" stroke-width="0.572181"/>
</g>
<g filter="url(#filter3_f_260_657)" class="bulb4">
<circle cx="8.01054" cy="8.01054" r="8.01054" transform="matrix(0.942373 0.334564 0.334564 -0.942373 204.721 74.2406)" fill="#D1004C"/>
<circle cx="8.01054" cy="8.01054" r="7.72445" transform="matrix(0.942373 0.334564 0.334564 -0.942373 204.721 74.2406)" stroke="#AAAAAA" stroke-width="0.572181"/>
</g>
<g filter="url(#filter4_f_260_657)" class="bulb5">
<circle cx="8.01054" cy="8.01054" r="8.01054" transform="matrix(0.942373 0.334564 0.334564 -0.942373 244.639 96.9124)" fill="#D4C71D"/>
<circle cx="8.01054" cy="8.01054" r="7.72445" transform="matrix(0.942373 0.334564 0.334564 -0.942373 244.639 96.9124)" stroke="#AAAAAA" stroke-width="0.572181"/>
</g>
<g filter="url(#filter5_f_260_657)" class="bulb6">
<circle cx="8.01054" cy="8.01054" r="8.01054" transform="matrix(0.942373 0.334564 0.334564 -0.942373 313.01 145.471)" fill="#CB000B"/>
<circle cx="8.01054" cy="8.01054" r="7.72445" transform="matrix(0.942373 0.334564 0.334564 -0.942373 313.01 145.471)" stroke="#AAAAAA" stroke-width="0.572181"/>
</g>
<defs>
<filter id="filter0_f_260_657" x="87.3176" y="16.7571" width="35.8229" height="35.8229" filterUnits="userSpaceOnUse" color-interpolation-filters="sRGB">
<feFlood flood-opacity="0" result="BackgroundImageFix"/>
<feBlend mode="normal" in="SourceGraphic" in2="BackgroundImageFix" result="shape"/>
<feGaussianBlur stdDeviation="4.94937" result="effect1_foregroundBlur_260_657"/>
</filter>
<filter id="filter1_f_260_657" x="131.829" y="26.4876" width="35.8229" height="35.8229" filterUnits="userSpaceOnUse" color-interpolation-filters="sRGB">
<feFlood flood-opacity="0" result="BackgroundImageFix"/>
<feBlend mode="normal" in="SourceGraphic" in2="BackgroundImageFix" result="shape"/>
<feGaussianBlur stdDeviation="4.94937" result="effect1_foregroundBlur_260_657"/>
</filter>
<filter id="filter2_f_260_657" x="164.722" y="38.1653" width="35.8229" height="35.8229" filterUnits="userSpaceOnUse" color-interpolation-filters="sRGB">
<feFlood flood-opacity="0" result="BackgroundImageFix"/>
<feBlend mode="normal" in="SourceGraphic" in2="BackgroundImageFix" result="shape"/>
<feGaussianBlur stdDeviation="4.94937" result="effect1_foregroundBlur_260_657"/>
</filter>
<filter id="filter3_f_260_657" x="197.038" y="51.4602" width="35.8229" height="35.8229" filterUnits="userSpaceOnUse" color-interpolation-filters="sRGB">
<feFlood flood-opacity="0" result="BackgroundImageFix"/>
<feBlend mode="normal" in="SourceGraphic" in2="BackgroundImageFix" result="shape"/>
<feGaussianBlur stdDeviation="4.94937" result="effect1_foregroundBlur_260_657"/>
</filter>
<filter id="filter4_f_260_657" x="236.956" y="74.1321" width="35.8229" height="35.8229" filterUnits="userSpaceOnUse" color-interpolation-filters="sRGB">
<feFlood flood-opacity="0" result="BackgroundImageFix"/>
<feBlend mode="normal" in="SourceGraphic" in2="BackgroundImageFix" result="shape"/>
<feGaussianBlur stdDeviation="4.94937" result="effect1_foregroundBlur_260_657"/>
</filter>
<filter id="filter5_f_260_657" x="305.327" y="122.691" width="35.8229" height="35.8229" filterUnits="userSpaceOnUse" color-interpolation-filters="sRGB">
<feFlood flood-opacity="0" result="BackgroundImageFix"/>
<feBlend mode="normal" in="SourceGraphic" in2="BackgroundImageFix" result="shape"/>
<feGaussianBlur stdDeviation="4.94937" result="effect1_foregroundBlur_260_657"/>
</filter>
</defs>
</svg>
